<?xml version="1.0" encoding="UTF-8" standalone="yes"?>
<svg version="1.2" baseProfile="tiny-ps" viewBox="0 0 300 300" xmlns="http://www.w3.org/2000/svg">
  <title>bimi-svg-tiny-12-ps</title>
  <g>
    <g fill="#fff" transform="matrix(.1 0 0 -.1 0 300)">
      <path d="M0 1500V0h3000v3000H0V1500z"/>
    </g>
    <g fill="#a8cbfa" transform="matrix(.1 0 0 -.1 0 300)">
      <path d="M1383 2208C735 958 549 597 552 595c2-2 206 289 453 647 248 358 464 670 481 694l30 44 263-506c145-278 262-507 259-509-2-2-113 28-247 66-134 39-245 68-247 66s167-88 377-191c209-104 383-186 385-183 5 5-791 1675-805 1690l-8 8-110-213z"/>
    </g>
    <g fill="#3ca0fe" transform="matrix(.1 0 0 -.1 0 300)">
      <path d="M1392 2218c-148-286-631-1217-734-1415-49-95-87-173-84-173 2 0 215 304 472 676l467 675 7-8c9-9 515-978 525-1004l6-17-238 69c-131 38-242 69-248 69-5 0 158-83 364-185 205-102 375-185 377-185s-12 33-30 73c-78 169-768 1603-776 1610l-8 9-100-194z"/>
    </g>
    <g fill="#1f8aff" transform="matrix(.1 0 0 -.1 0 300)">
      <path d="m1459 2107-32-54-44 25c-24 13-45 23-47 21-6-7-225-426-436-834-322-623-332-641-316-620 9 11 219 314 468 674s458 654 463 654h10l220-420c121-231 227-431 236-444l17-24 20 18 20 18 42-78c24-43 59-106 78-141l34-63-43 18c-24 9-98 40-165 67l-121 51 4 12 4 11-48 15c-53 17-187 56-218 63-28 6 118-68 432-222l271-132-72 151c-40 84-166 346-280 583l-208 431-68 37-69 37-53 99c-29 55-56 100-60 100s-21-24-39-53z"/>
    </g>
    <g fill="#046cfb" transform="matrix(.1 0 0 -.1 0 300)">
      <path d="M1393 1992c-56-92-108-175-115-186l-14-18-34 21-34 20-51-97c-46-86-377-722-521-1002-30-58-47-94-37-80s222 320 471 680c250 360 455 656 457 658 1 2 64-115 140-260s139-265 142-267c2-3 13 4 24 15l20 20-19 45c-25 55-309 600-320 611l-7 7-102-167zm490-554c8-18 80-159 160-313 80-153 145-281 143-283s-131 49-287 112c-156 64-284 114-286 113-1-2 154-80 346-174l348-170-90 186c-49 102-124 259-167 348l-78 162-51 26-52 26 14-33z"/>
    </g>
    <g fill="#0552f2" transform="matrix(.1 0 0 -.1 0 300)">
      <path d="M1330 1878c-90-150-170-284-179-298l-16-25 20 15c11 8 43 34 71 57 28 24 55 43 60 43 5 1 58 73 118 160 60 88 111 160 112 160 2 0 14-20 26-44l23-45 23 18 24 17-53 107c-30 59-56 107-60 107-3 0-80-123-169-272zm-445-645C648 780 581 650 585 650c5 0 453 746 479 797l16 32-19 11c-11 5-23 10-28 10s-71-120-148-267zm1094-348c173-86 315-154 317-152s-11 35-30 73l-33 69-37 17-36 18 21-42 21-41-14 6c-7 3-125 50-262 106s-252 101-255 101 136-70 308-155z"/>
    </g>
  </g>
</svg>